 <svg  version="1.0" xmlns="http://www.w3.org/2000/svg"  width="192.000000pt" height="192.000000pt" viewBox="0 0 192.000000 192.000000"  preserveAspectRatio="xMidYMid meet">  <g transform="translate(0.000000,192.000000) scale(0.100000,-0.100000)" fill="#0b0967" stroke="none"> <path d="M409 1887 c-8 -12 -39 -62 -69 -112 -30 -49 -88 -146 -130 -215 -86 -141 -132 -219 -179 -302 -30 -54 -32 -61 -29 -150 l3 -93 29 50 c40 69 345 574 400 663 l45 72 189 0 c104 0 325 -3 491 -7 264 -5 304 -8 309 -22 7 -20 86 -163 162 -296 94 -163 220 -386 220 -390 0 -2 16 -30 35 -62 l35 -58 0 104 0 103 -110 194 c-60 107 -110 196 -110 198 0 2 -30 54 -66 117 -36 62 -76 134 -89 160 l-24 47 -173 6 c-95 3 -342 8 -548 11 l-375 5 -16 -23z"/> <path d="M444 1346 c-3 -13 -6 -192 -7 -398 l-2 -373 70 0 70 0 3 235 c1 129 5 242 8 250 6 16 51 -51 204 -308 57 -95 109 -177 115 -182 6 -5 114 -11 246 -12 232 -3 234 -3 274 21 117 71 135 138 135 508 l0 273 -75 0 c-41 0 -76 -1 -76 -2 -1 -2 -5 -129 -8 -283 -6 -241 -9 -285 -25 -317 -43 -88 -205 -93 -265 -9 -23 31 -23 37 -22 312 1 200 -2 285 -10 295 -8 9 -33 14 -75 14 -60 0 -65 -2 -74 -26 -6 -14 -10 -129 -10 -255 0 -126 -3 -229 -7 -229 -9 0 -120 177 -181 285 -21 39 -59 104 -84 145 l-45 75 -76 3 c-74 3 -77 2 -83 -22z"/> <path d="M0 829 c0 -100 2 -107 30 -152 17 -26 30 -52 30 -57 0 -7 100 -191 131 -240 5 -8 34 -60 65 -115 103 -183 119 -210 129 -227 9 -15 63 -17 556 -24 l547 -7 14 24 c8 13 33 53 55 89 22 36 100 166 173 290 73 124 145 246 161 271 27 43 29 53 29 145 -1 91 -2 97 -16 79 -13 -18 -153 -245 -179 -292 -5 -10 -59 -101 -120 -201 -60 -101 -123 -207 -139 -235 -15 -29 -33 -55 -39 -59 -6 -3 -43 -5 -81 -3 -39 1 -228 4 -421 5 -192 2 -377 6 -409 9 l-59 6 -38 61 c-20 34 -69 117 -107 185 -38 68 -107 189 -152 269 -46 80 -96 170 -111 200 -48 95 -49 94 -49 -21z"/> </g> </svg> 